<?xml version="1.0" standalone="no"?>
<!DOCTYPE svg PUBLIC "-//W3C//DTD SVG 20010904//EN"
 "http://www.w3.org/TR/2001/REC-SVG-20010904/DTD/svg10.dtd">
<svg version="1.0" xmlns="http://www.w3.org/2000/svg"
 width="346.000000pt" height="346.000000pt" viewBox="0 0 346.000000 346.000000"
 preserveAspectRatio="xMidYMid meet">

<g transform="translate(0.000000,346.000000) scale(0.100000,-0.100000)"
fill="#000000" stroke="none">
<path d="M1593 2761 c-23 -4 -47 -12 -55 -18 -7 -5 -86 -67 -175 -137 l-163
-127 -92 -9 c-51 -5 -208 -16 -348 -25 -304 -19 -401 -29 -538 -55 -108 -22
-182 -46 -182 -61 0 -5 21 0 48 10 68 27 169 48 311 66 135 16 592 37 841 38
145 1 151 2 102 13 -66 15 -70 19 -47 43 20 23 199 164 260 206 l40 27 250 -5
c138 -3 260 -9 273 -12 20 -7 22 -14 23 -74 l2 -66 10 64 10 63 61 -6 c34 -3
103 -15 154 -25 85 -18 97 -24 150 -69 32 -28 64 -62 72 -77 25 -47 -5 -57
-220 -76 l-95 -8 110 4 c61 3 151 12 200 21 121 23 330 23 458 0 54 -10 101
-16 103 -13 3 3 -12 8 -32 11 -66 13 -206 63 -394 141 -102 42 -219 85 -260
95 -200 49 -725 86 -877 61z"/>
<path d="M3178 2443 c7 -3 16 -2 19 1 4 3 -2 6 -13 5 -11 0 -14 -3 -6 -6z"/>
<path d="M3228 2433 c7 -3 16 -2 19 1 4 3 -2 6 -13 5 -11 0 -14 -3 -6 -6z"/>
<path d="M3278 2423 c7 -3 16 -2 19 1 4 3 -2 6 -13 5 -11 0 -14 -3 -6 -6z"/>
<path d="M3338 2413 c7 -3 16 -2 19 1 4 3 -2 6 -13 5 -11 0 -14 -3 -6 -6z"/>
<path d="M3400 2403 c8 -3 18 -11 22 -17 5 -7 8 -4 8 7 0 11 -7 17 -22 16 -16
0 -18 -2 -8 -6z"/>
<path d="M2600 2360 c-16 -6 -6 -7 30 -3 30 3 57 7 59 9 8 7 -64 2 -89 -6z"/>
<path d="M2708 2353 c6 -2 18 -2 25 0 6 3 1 5 -13 5 -14 0 -19 -2 -12 -5z"/>
<path d="M931 2298 c-31 -85 -171 -479 -171 -483 0 -3 24 -5 53 -5 54 0 54 0
70 41 15 38 18 40 54 37 36 -3 38 -5 41 -40 l3 -38 55 0 54 0 -2 253 -3 252
-73 3 c-67 3 -73 1 -81 -20z m49 -248 c0 -44 -2 -50 -21 -50 -22 0 -22 14 1
75 14 38 20 31 20 -25z"/>
<path d="M2240 2296 c0 -8 -80 -461 -85 -483 -5 -22 -2 -23 52 -23 l58 0 43
243 c23 133 42 248 42 255 0 8 -18 12 -55 12 -30 0 -55 -2 -55 -4z"/>
<path d="M1870 2281 c0 -6 -18 -113 -40 -238 -22 -126 -40 -234 -40 -240 0 -9
17 -13 54 -13 l54 0 17 95 c17 94 17 95 46 95 21 0 29 -5 29 -18 0 -20 -18
-127 -26 -154 -5 -16 2 -18 54 -18 l59 0 17 102 c17 100 16 101 -4 123 l-21
23 29 23 c24 20 32 36 41 89 11 63 10 65 -18 100 l-28 35 -112 3 c-70 2 -111
-1 -111 -7z m155 -143 c-9 -42 -17 -50 -46 -46 -20 2 -23 8 -20 33 4 41 8 45
42 45 29 0 30 -1 24 -32z"/>
<path d="M2781 2198 c-6 -29 -24 -132 -41 -228 -17 -96 -33 -185 -36 -198 -4
-22 -3 -23 53 -20 l58 3 14 79 c15 84 24 85 35 1 12 -86 11 -85 72 -85 30 0
54 3 54 7 0 4 -10 60 -21 125 l-21 119 32 62 c18 34 48 90 67 125 l35 62 -59
0 -60 0 -23 -50 c-13 -27 -32 -62 -42 -77 l-20 -28 6 45 c4 25 9 60 12 78 l6
32 -55 0 -56 0 -10 -52z"/>
<path d="M392 2003 c-23 -131 -42 -244 -42 -250 0 -9 18 -13 54 -13 l54 0 12
71 c7 39 15 67 19 64 3 -3 13 -36 21 -72 l15 -66 40 71 c40 72 60 91 50 50 -3
-13 -9 -44 -14 -70 l-8 -48 56 0 57 0 42 243 c24 133 42 245 42 250 0 4 -25 7
-55 7 l-54 0 -48 -82 -48 -83 -18 83 -19 82 -57 0 -57 0 -42 -237z"/>
<path d="M1492 2003 c-23 -131 -42 -244 -42 -250 0 -10 32 -13 124 -13 l124 0
6 30 c3 17 9 44 12 60 l6 30 -72 0 c-70 0 -72 1 -66 23 3 12 6 30 6 40 0 15
10 17 75 17 65 0 75 2 75 18 0 9 3 34 6 55 l7 37 -70 0 -70 0 6 38 6 37 72 3
71 3 6 37 c4 20 9 45 12 55 5 16 -5 17 -123 17 l-129 0 -42 -237z"/>
<path d="M2451 2202 l-44 -38 -28 -159 c-15 -88 -28 -170 -29 -182 0 -12 12
-35 26 -52 25 -30 29 -31 102 -31 74 1 78 2 119 38 37 32 43 44 49 90 l7 52
-56 0 -56 0 -7 -35 c-5 -30 -10 -35 -35 -35 -36 0 -36 10 -6 165 l22 110 30 0
c28 0 30 -2 27 -37 l-4 -38 55 0 55 0 10 57 c9 56 9 59 -20 95 -29 38 -30 38
-101 38 -69 0 -74 -2 -116 -38z"/>
<path d="M1160 2003 c0 -126 3 -238 6 -250 6 -21 12 -23 78 -23 l71 0 84 238
c47 130 87 243 89 250 3 9 -11 12 -51 12 l-55 0 -30 -82 c-16 -46 -37 -108
-47 -138 -10 -30 -21 -59 -26 -65 -5 -5 -9 53 -9 138 l0 147 -55 0 -55 0 0
-227z"/>
<path d="M250 2184 c36 -8 100 -9 100 -2 0 5 -26 7 -57 7 -32 -1 -51 -3 -43
-5z"/>
<path d="M170 2016 c0 -2 8 -10 18 -17 15 -13 16 -12 3 4 -13 16 -21 21 -21
13z"/>
<path d="M3290 1987 c-19 -12 -71 -30 -115 -40 -69 -15 -72 -16 -25 -12 80 8
121 22 155 50 37 30 32 30 -15 2z"/>
<path d="M210 1984 c0 -7 91 -46 96 -42 2 2 -19 14 -46 25 -28 12 -50 19 -50
17z"/>
<path d="M1000 1569 c0 -37 4 -58 10 -54 6 3 10 21 11 38 0 30 1 31 11 10 6
-13 15 -23 20 -23 5 0 13 10 17 23 9 21 9 21 16 -8 11 -49 12 -51 20 -32 9 22
-3 107 -16 107 -5 0 -15 -15 -23 -32 l-14 -33 -12 33 c-20 55 -40 41 -40 -29z"/>
<path d="M1170 1580 c0 -39 4 -52 20 -60 37 -20 60 3 60 60 0 64 -18 65 -22 3
-2 -35 -7 -48 -18 -48 -11 0 -16 13 -18 48 -4 62 -22 61 -22 -3z"/>
<path d="M1320 1575 c0 -54 0 -55 30 -55 17 0 30 5 30 10 0 6 -9 10 -20 10
-17 0 -20 7 -20 45 0 25 -4 45 -10 45 -5 0 -10 -25 -10 -55z"/>
<path d="M1410 1620 c0 -5 7 -10 15 -10 11 0 15 -12 15 -45 0 -25 5 -45 10
-45 6 0 10 20 10 45 0 33 4 45 15 45 8 0 15 5 15 10 0 6 -18 10 -40 10 -22 0
-40 -4 -40 -10z"/>
<path d="M1550 1569 c0 -37 4 -58 10 -54 6 3 10 31 10 61 0 30 -4 54 -10 54
-6 0 -10 -27 -10 -61z"/>
<path d="M1630 1575 c0 -60 16 -75 23 -22 4 29 5 30 12 10 4 -13 11 -23 15
-23 4 0 15 10 23 23 16 22 16 22 16 -10 1 -18 6 -33 11 -33 6 0 10 25 10 55 0
64 -19 75 -41 23 l-13 -32 -13 32 c-22 53 -43 41 -43 -23z"/>
<path d="M1820 1606 c-5 -13 -12 -41 -15 -62 -6 -35 -5 -37 8 -21 16 20 38 22
55 5 20 -20 22 -4 5 50 -18 56 -38 67 -53 28z m30 -31 c0 -14 -4 -25 -10 -25
-11 0 -14 33 -3 43 11 11 13 8 13 -18z"/>
<path d="M1950 1576 c0 -31 5 -56 10 -56 6 0 10 20 10 45 0 42 7 54 23 39 3
-4 2 -14 -2 -23 -9 -17 3 -61 16 -61 5 0 8 24 8 53 0 51 0 52 -32 55 l-33 3 0
-55z"/>
<path d="M2092 1618 c-7 -7 -12 -27 -12 -45 0 -40 38 -71 67 -54 17 10 16 10
-3 11 -51 0 -61 72 -11 78 15 2 27 8 27 13 0 13 -54 11 -68 -3z"/>
<path d="M2227 1578 c-17 -54 -15 -70 5 -50 17 17 39 15 55 -5 13 -16 14 -14
8 21 -16 99 -43 112 -68 34z m40 -24 c-12 -12 -25 7 -19 28 l5 22 10 -22 c6
-12 7 -25 4 -28z"/>
<path d="M2367 1623 c-15 -15 -5 -44 18 -55 30 -13 27 -33 -4 -32 -24 1 -29
-14 -7 -22 22 -8 56 14 56 37 0 11 -11 24 -25 31 -27 12 -29 33 -2 33 8 0 19
4 23 8 4 4 -6 7 -23 7 -16 0 -33 -3 -36 -7z"/>
</g>
</svg>
